<?xml version="1.0" standalone="no"?>
<!DOCTYPE svg PUBLIC "-//W3C//DTD SVG 20010904//EN"
 "http://www.w3.org/TR/2001/REC-SVG-20010904/DTD/svg10.dtd">
<svg version="1.0" xmlns="http://www.w3.org/2000/svg"
 width="700.000000pt" height="700.000000pt" viewBox="0 0 700.000000 700.000000"
 preserveAspectRatio="xMidYMid meet">
<metadata>
Created by potrace 1.14, written by Peter Selinger 2001-2017
</metadata>
<g transform="translate(0.000000,700.000000) scale(0.100000,-0.100000)"
fill="#000000" stroke="none">
<path d="M3386 6984 c-60 -22 -120 -77 -149 -136 l-26 -53 -1 -516 c0 -566 -1
-562 60 -639 18 -22 56 -52 90 -68 52 -27 68 -30 142 -28 127 3 210 50 260
146 l23 45 3 515 c2 361 -1 527 -8 556 -17 61 -77 134 -134 163 -60 31 -197
39 -260 15z"/>
<path d="M953 6265 c-174 -53 -273 -245 -204 -400 31 -69 701 -743 777 -780
104 -52 232 -29 319 59 65 66 108 161 99 221 -9 63 -18 94 -35 125 -11 19
-179 193 -372 387 -264 263 -364 357 -397 372 -58 26 -134 32 -187 16z"/>
<path d="M5775 6265 c-22 -6 -51 -17 -65 -24 -14 -8 -184 -171 -378 -365 -394
-392 -407 -408 -405 -521 0 -76 26 -136 84 -196 70 -72 130 -100 219 -104 33
-1 108 21 139 42 14 9 185 175 379 369 387 388 394 397 394 509 0 77 -28 139
-93 205 -80 82 -181 113 -274 85z"/>
<path d="M3375 4953 c-162 -16 -346 -67 -499 -137 -182 -84 -386 -244 -504
-395 -15 -19 -36 -46 -48 -60 -38 -48 -112 -175 -147 -251 -87 -191 -129 -383
-131 -590 -1 -197 14 -299 70 -471 266 -826 1211 -1237 1999 -869 67 31 187
100 230 132 234 175 406 394 503 640 38 95 69 195 77 243 2 11 9 49 16 85 26
150 15 408 -26 565 -9 33 -18 67 -20 76 -2 9 -22 64 -45 122 -66 170 -174 336
-303 468 -98 99 -124 121 -236 197 -165 112 -364 193 -562 227 -85 15 -297 25
-374 18z"/>
<path d="M176 3774 c-58 -21 -121 -77 -147 -131 -30 -60 -36 -189 -13 -257 25
-72 102 -145 175 -166 52 -15 1035 -14 1079 1 127 44 190 144 186 296 -2 66
-7 88 -32 133 -30 55 -87 105 -147 127 -51 18 -1049 16 -1101 -3z"/>
<path d="M5740 3783 c-81 -29 -135 -75 -173 -148 -29 -55 -30 -213 -3 -265 43
-79 91 -123 166 -149 26 -9 170 -12 540 -11 579 0 571 -1 650 80 54 55 80 124
80 209 0 116 -49 205 -145 262 l-40 24 -530 2 c-291 1 -537 -1 -545 -4z"/>
<path d="M5167 2069 c-57 -13 -92 -35 -148 -90 -66 -65 -93 -126 -92 -204 1
-114 8 -123 396 -511 371 -373 403 -399 497 -407 56 -5 134 17 180 51 137 101
178 234 115 367 -34 70 -712 746 -777 775 -53 23 -118 30 -171 19z"/>
<path d="M1557 1916 c-20 -8 -52 -25 -70 -39 -17 -13 -185 -178 -372 -365
-378 -379 -389 -393 -388 -502 1 -81 20 -127 81 -192 74 -80 123 -103 212
-103 61 0 85 5 123 25 33 17 158 135 399 375 388 387 402 405 401 516 0 187
-215 346 -386 285z"/>
<path d="M3385 1440 c-68 -26 -115 -68 -145 -126 l-25 -49 -3 -519 c-3 -595
-4 -585 77 -666 76 -75 199 -100 321 -64 67 20 140 92 164 160 23 68 24 1038
1 1104 -21 61 -66 112 -126 145 -70 37 -188 44 -264 15z"/>
</g>
</svg>
