<svg width="90" height="60" viewBox="0 0 90 60" fill="none" xmlns="http://www.w3.org/2000/svg">
<mask id="path-1-inside-1_1_12" fill="white">
<path fill-rule="evenodd" clip-rule="evenodd" d="M45.8824 0C55.9893 0 64.4725 7.02051 66.8115 16.4961C67.3463 16.456 67.8864 16.4356 68.4314 16.4356C80.3434 16.4356 90 26.1879 90 38.2178C90 50.2478 80.3434 60 68.4314 60C64.2987 60 60.4375 58.8262 57.1569 56.7907C53.8762 58.8262 50.015 60 45.8823 60C39.5193 60 33.7998 57.2173 29.8519 52.7912C27.3016 53.8634 24.5035 54.4554 21.5686 54.4554C9.6566 54.4554 0 44.7032 0 32.6733C0 20.6433 9.6566 10.8911 21.5686 10.8911C23.3867 10.8911 25.1522 11.1182 26.8389 11.546C30.4672 4.67584 37.6341 0 45.8824 0Z"/>
</mask>
<g filter="url(#filter0_i_1_12)">
<path fill-rule="evenodd" clip-rule="evenodd" d="M45.8824 0C55.9893 0 64.4725 7.02051 66.8115 16.4961C67.3463 16.456 67.8864 16.4356 68.4314 16.4356C80.3434 16.4356 90 26.1879 90 38.2178C90 50.2478 80.3434 60 68.4314 60C64.2987 60 60.4375 58.8262 57.1569 56.7907C53.8762 58.8262 50.015 60 45.8823 60C39.5193 60 33.7998 57.2173 29.8519 52.7912C27.3016 53.8634 24.5035 54.4554 21.5686 54.4554C9.6566 54.4554 0 44.7032 0 32.6733C0 20.6433 9.6566 10.8911 21.5686 10.8911C23.3867 10.8911 25.1522 11.1182 26.8389 11.546C30.4672 4.67584 37.6341 0 45.8824 0Z" fill="white"/>
</g>
<path d="M66.8115 16.4961L57.1029 18.8926L59.1289 27.1003L67.5592 26.4682L66.8115 16.4961ZM57.1569 56.7907L62.429 48.2934L57.1569 45.0224L51.8847 48.2934L57.1569 56.7907ZM29.8519 52.7912L37.3147 46.1348L32.5605 40.8047L25.9764 43.5728L29.8519 52.7912ZM26.8389 11.546L24.3805 21.2391L32.0071 23.1733L35.6814 16.216L26.8389 11.546ZM76.5201 14.0997C73.1199 0.324927 60.7585 -10 45.8824 -10V10C51.2201 10 55.8251 13.7161 57.1029 18.8926L76.5201 14.0997ZM68.4314 6.43564C67.6367 6.43564 66.8471 6.46541 66.0638 6.52414L67.5592 26.4682C67.8455 26.4467 68.1362 26.4356 68.4314 26.4356V6.43564ZM100 38.2178C100 20.7581 85.9589 6.43564 68.4314 6.43564V26.4356C74.7279 26.4356 80 31.6176 80 38.2178H100ZM68.4314 70C85.9589 70 100 55.6775 100 38.2178H80C80 44.8181 74.7279 50 68.4314 50V70ZM51.8847 65.2881C56.6985 68.2747 62.3777 70 68.4314 70V50C66.2198 50 64.1766 49.3777 62.429 48.2934L51.8847 65.2881ZM45.8823 70C51.936 70 57.6152 68.2747 62.429 65.2881L51.8847 48.2934C50.1371 49.3777 48.0939 50 45.8823 50V70ZM22.3892 59.4476C28.142 65.8973 36.5329 70 45.8823 70V50C42.5057 50 39.4576 48.5373 37.3147 46.1348L22.3892 59.4476ZM25.9764 43.5728C24.6294 44.1391 23.1472 44.4554 21.5686 44.4554V64.4554C25.8599 64.4554 29.9737 63.5878 33.7275 62.0097L25.9764 43.5728ZM21.5686 44.4554C15.2721 44.4554 10 39.2735 10 32.6733H-10C-10 50.133 4.0411 64.4554 21.5686 64.4554V44.4554ZM10 32.6733C10 26.073 15.2721 20.8911 21.5686 20.8911V0.891082C4.0411 0.891082 -10 15.2136 -10 32.6733H10ZM21.5686 20.8911C22.5505 20.8911 23.4905 21.0134 24.3805 21.2391L29.2972 1.85288C26.8139 1.2231 24.2228 0.891082 21.5686 0.891082V20.8911ZM45.8824 -10C33.7451 -10 23.2698 -3.10931 17.9963 6.87601L35.6814 16.216C37.6646 12.461 41.523 10 45.8824 10V-10Z" fill="white" mask="url(#path-1-inside-1_1_12)"/>
<defs>
<filter id="filter0_i_1_12" x="0" y="0" width="90" height="64" filterUnits="userSpaceOnUse" color-interpolation-filters="sRGB">
<feFlood flood-opacity="0" result="BackgroundImageFix"/>
<feBlend mode="normal" in="SourceGraphic" in2="BackgroundImageFix" result="shape"/>
<feColorMatrix in="SourceAlpha" type="matrix" values="0 0 0 0 0 0 0 0 0 0 0 0 0 0 0 0 0 0 127 0" result="hardAlpha"/>
<feOffset dy="4"/>
<feGaussianBlur stdDeviation="2"/>
<feComposite in2="hardAlpha" operator="arithmetic" k2="-1" k3="1"/>
<feColorMatrix type="matrix" values="0 0 0 0 0 0 0 0 0 0 0 0 0 0 0 0 0 0 0.25 0"/>
<feBlend mode="normal" in2="shape" result="effect1_innerShadow_1_12"/>
</filter>
</defs>
</svg>
