<svg width="270.000000" height="120.000000" viewBox="0 0 270 120" fill="none" xmlns="http://www.w3.org/2000/svg" xmlns:xlink="http://www.w3.org/1999/xlink">
	<desc>
			Created with Pixso.
	</desc>
	<defs>
		<filter id="filter_0_4_dd" x="90.000000" y="0.000000" width="90.000000" height="60.000000" filterUnits="userSpaceOnUse" color-interpolation-filters="sRGB">
			<feFlood flood-opacity="0" result="BackgroundImageFix"/>
			<feBlend mode="normal" in="SourceGraphic" in2="BackgroundImageFix" result="shape"/>
			<feColorMatrix in="SourceAlpha" type="matrix" values="0 0 0 0 0 0 0 0 0 0 0 0 0 0 0 0 0 0 127 0" result="hardAlpha"/>
			<feOffset dx="0" dy="4"/>
			<feGaussianBlur stdDeviation="2"/>
			<feComposite in2="hardAlpha" operator="arithmetic" k2="-1" k3="1"/>
			<feColorMatrix type="matrix" values="0 0 0 0 0 0 0 0 0 0 0 0 0 0 0 0 0 0 0.25 0"/>
			<feBlend mode="normal" in2="shape" result="effect_innerShadow_1"/>
		</filter>
		<filter id="filter_0_10_dd" x="145.000000" y="60.000000" width="90.000000" height="60.000000" filterUnits="userSpaceOnUse" color-interpolation-filters="sRGB">
			<feFlood flood-opacity="0" result="BackgroundImageFix"/>
			<feBlend mode="normal" in="SourceGraphic" in2="BackgroundImageFix" result="shape"/>
			<feColorMatrix in="SourceAlpha" type="matrix" values="0 0 0 0 0 0 0 0 0 0 0 0 0 0 0 0 0 0 127 0" result="hardAlpha"/>
			<feOffset dx="0" dy="4"/>
			<feGaussianBlur stdDeviation="2"/>
			<feComposite in2="hardAlpha" operator="arithmetic" k2="-1" k3="1"/>
			<feColorMatrix type="matrix" values="0 0 0 0 0 0 0 0 0 0 0 0 0 0 0 0 0 0 0.25 0"/>
			<feBlend mode="normal" in2="shape" result="effect_innerShadow_1"/>
		</filter>
		<filter id="filter_0_16_dd" x="35.000000" y="60.000000" width="90.000000" height="60.000000" filterUnits="userSpaceOnUse" color-interpolation-filters="sRGB">
			<feFlood flood-opacity="0" result="BackgroundImageFix"/>
			<feBlend mode="normal" in="SourceGraphic" in2="BackgroundImageFix" result="shape"/>
			<feColorMatrix in="SourceAlpha" type="matrix" values="0 0 0 0 0 0 0 0 0 0 0 0 0 0 0 0 0 0 127 0" result="hardAlpha"/>
			<feOffset dx="0" dy="4"/>
			<feGaussianBlur stdDeviation="2"/>
			<feComposite in2="hardAlpha" operator="arithmetic" k2="-1" k3="1"/>
			<feColorMatrix type="matrix" values="0 0 0 0 0 0 0 0 0 0 0 0 0 0 0 0 0 0 0.25 0"/>
			<feBlend mode="normal" in2="shape" result="effect_innerShadow_1"/>
		</filter>
		<clipPath id="clip0_3">
			<rect id="clouds" width="270.000000" height="120.000000" fill="white" fill-opacity="0"/>
		</clipPath>
	</defs>
	<g clip-path="url(#clip0_3)">
		<g filter="url(#filter_0_4_dd)">
			<path id="path" d="M135.882 0C145.989 0 154.473 7.02051 156.811 16.4961C157.346 16.456 157.886 16.4356 158.431 16.4356C170.343 16.4356 180 26.1879 180 38.2178C180 50.2478 170.343 60 158.431 60C154.299 60 150.438 58.8262 147.157 56.7907C143.876 58.8262 140.015 60 135.882 60C129.519 60 123.8 57.2173 119.852 52.7912C117.302 53.8634 114.504 54.4554 111.569 54.4554C99.6566 54.4554 90 44.7032 90 32.6733C90 20.6433 99.6566 10.8911 111.569 10.8911C113.387 10.8911 115.152 11.1182 116.839 11.546C120.467 4.67584 127.634 0 135.882 0Z" fill="#FFFFFF" fill-opacity="1.000000" fill-rule="evenodd"/>
		</g>
		<mask id="mask0_8" mask-type="alpha" maskUnits="userSpaceOnUse" x="90.000000" y="0.000000" width="90.000000" height="60.000000">
			<path id="path" d="M135.882 0C145.989 0 154.473 7.02051 156.811 16.4961C157.346 16.456 157.886 16.4356 158.431 16.4356C170.343 16.4356 180 26.1879 180 38.2178C180 50.2478 170.343 60 158.431 60C154.299 60 150.438 58.8262 147.157 56.7907C143.876 58.8262 140.015 60 135.882 60C129.519 60 123.8 57.2173 119.852 52.7912C117.302 53.8634 114.504 54.4554 111.569 54.4554C99.6566 54.4554 90 44.7032 90 32.6733C90 20.6433 99.6566 10.8911 111.569 10.8911C113.387 10.8911 115.152 11.1182 116.839 11.546C120.467 4.67584 127.634 0 135.882 0Z" fill="#FFFFFF" fill-opacity="1.000000" fill-rule="evenodd"/>
		</mask>
		<g mask="url(#mask0_8)">
			<path id="path" d="M156.811 16.4961L147.103 18.8926L149.129 27.1003L157.559 26.4682L156.811 16.4961ZM147.157 56.7907L152.429 48.2934L147.157 45.0224L141.885 48.2934L147.157 56.7907ZM119.852 52.7912L127.315 46.1348L122.561 40.8047L115.976 43.5728L119.852 52.7912ZM116.839 11.546L114.381 21.2391L122.007 23.1733L125.681 16.216L116.839 11.546ZM166.52 14.0997C163.12 0.324927 150.758 -10 135.882 -10L135.882 10C141.22 10 145.825 13.7161 147.103 18.8926L166.52 14.0997ZM158.431 6.43564C157.637 6.43564 156.847 6.46541 156.064 6.52414L157.559 26.4682C157.845 26.4467 158.136 26.4356 158.431 26.4356L158.431 6.43564ZM190 38.2178C190 20.7581 175.959 6.43564 158.431 6.43564L158.431 26.4356C164.728 26.4356 170 31.6176 170 38.2178L190 38.2178ZM158.431 70C175.959 70 190 55.6775 190 38.2178L170 38.2178C170 44.8181 164.728 50 158.431 50L158.431 70ZM141.885 65.2881C146.698 68.2747 152.378 70 158.431 70L158.431 50C156.22 50 154.177 49.3777 152.429 48.2934L141.885 65.2881ZM135.882 70C141.936 70 147.615 68.2747 152.429 65.2881L141.885 48.2934C140.137 49.3777 138.094 50 135.882 50L135.882 70ZM112.389 59.4476C118.142 65.8973 126.533 70 135.882 70L135.882 50C132.506 50 129.458 48.5373 127.315 46.1348L112.389 59.4476ZM115.976 43.5728C114.629 44.139 113.147 44.4554 111.569 44.4554L111.569 64.4554C115.86 64.4554 119.974 63.5878 123.728 62.0097L115.976 43.5728ZM111.569 44.4554C105.272 44.4554 100 39.2735 100 32.6733L80 32.6733C80 50.133 94.0411 64.4554 111.569 64.4554L111.569 44.4554ZM100 32.6733C100 26.073 105.272 20.8911 111.569 20.8911L111.569 0.891083C94.0411 0.891083 80 15.2136 80 32.6733L100 32.6733ZM111.569 20.8911C112.551 20.8911 113.49 21.0134 114.381 21.2391L119.297 1.85288C116.814 1.2231 114.223 0.891083 111.569 0.891083L111.569 20.8911ZM135.882 -10C123.745 -10 113.27 -3.10931 107.996 6.87601L125.681 16.216C127.665 12.461 131.523 10 135.882 10L135.882 -10Z" fill="#FFFFFF" fill-opacity="1.000000" fill-rule="nonzero"/>
		</g>
		<g filter="url(#filter_0_10_dd)">
			<path id="path" d="M190.882 60C200.989 60 209.473 67.0205 211.811 76.4961C212.346 76.456 212.886 76.4356 213.431 76.4356C225.343 76.4356 235 86.1879 235 98.2178C235 110.248 225.343 120 213.431 120C209.299 120 205.438 118.826 202.157 116.791C198.876 118.826 195.015 120 190.882 120C184.519 120 178.8 117.217 174.852 112.791C172.302 113.863 169.504 114.455 166.569 114.455C154.657 114.455 145 104.703 145 92.6733C145 80.6433 154.657 70.8911 166.569 70.8911C168.387 70.8911 170.152 71.1182 171.839 71.546C175.467 64.6758 182.634 60 190.882 60Z" fill="#FFFFFF" fill-opacity="1.000000" fill-rule="evenodd"/>
		</g>
		<mask id="mask0_14" mask-type="alpha" maskUnits="userSpaceOnUse" x="145.000000" y="60.000000" width="90.000000" height="60.000000">
			<path id="path" d="M190.882 60C200.989 60 209.473 67.0205 211.811 76.4961C212.346 76.456 212.886 76.4356 213.431 76.4356C225.343 76.4356 235 86.1879 235 98.2178C235 110.248 225.343 120 213.431 120C209.299 120 205.438 118.826 202.157 116.791C198.876 118.826 195.015 120 190.882 120C184.519 120 178.8 117.217 174.852 112.791C172.302 113.863 169.504 114.455 166.569 114.455C154.657 114.455 145 104.703 145 92.6733C145 80.6433 154.657 70.8911 166.569 70.8911C168.387 70.8911 170.152 71.1182 171.839 71.546C175.467 64.6758 182.634 60 190.882 60Z" fill="#FFFFFF" fill-opacity="1.000000" fill-rule="evenodd"/>
		</mask>
		<g mask="url(#mask0_14)">
			<path id="path" d="M211.811 76.4961L202.103 78.8926L204.129 87.1003L212.559 86.4682L211.811 76.4961ZM202.157 116.791L207.429 108.293L202.157 105.022L196.885 108.293L202.157 116.791ZM174.852 112.791L182.315 106.135L177.561 100.805L170.976 103.573L174.852 112.791ZM171.839 71.546L169.381 81.2391L177.007 83.1733L180.681 76.216L171.839 71.546ZM221.52 74.0997C218.12 60.3249 205.758 50 190.882 50L190.882 70C196.22 70 200.825 73.7161 202.103 78.8926L221.52 74.0997ZM213.431 66.4356C212.637 66.4356 211.847 66.4654 211.064 66.5241L212.559 86.4682C212.845 86.4467 213.136 86.4356 213.431 86.4356L213.431 66.4356ZM245 98.2178C245 80.7581 230.959 66.4356 213.431 66.4356L213.431 86.4356C219.728 86.4356 225 91.6176 225 98.2178L245 98.2178ZM213.431 130C230.959 130 245 115.678 245 98.2178L225 98.2178C225 104.818 219.728 110 213.431 110L213.431 130ZM196.885 125.288C201.698 128.275 207.378 130 213.431 130L213.431 110C211.22 110 209.177 109.378 207.429 108.293L196.885 125.288ZM190.882 130C196.936 130 202.615 128.275 207.429 125.288L196.885 108.293C195.137 109.378 193.094 110 190.882 110L190.882 130ZM167.389 119.448C173.142 125.897 181.533 130 190.882 130L190.882 110C187.506 110 184.458 108.537 182.315 106.135L167.389 119.448ZM170.976 103.573C169.629 104.139 168.147 104.455 166.569 104.455L166.569 124.455C170.86 124.455 174.974 123.588 178.727 122.01L170.976 103.573ZM166.569 104.455C160.272 104.455 155 99.2735 155 92.6733L135 92.6733C135 110.133 149.041 124.455 166.569 124.455L166.569 104.455ZM155 92.6733C155 86.073 160.272 80.8911 166.569 80.8911L166.569 60.8911C149.041 60.8911 135 75.2136 135 92.6733L155 92.6733ZM166.569 80.8911C167.551 80.8911 168.49 81.0134 169.381 81.2391L174.297 61.8529C171.814 61.2231 169.223 60.8911 166.569 60.8911L166.569 80.8911ZM190.882 50C178.745 50 168.27 56.8907 162.996 66.876L180.681 76.216C182.665 72.461 186.523 70 190.882 70L190.882 50Z" fill="#FFFFFF" fill-opacity="1.000000" fill-rule="nonzero"/>
		</g>
		<g filter="url(#filter_0_16_dd)">
			<path id="path" d="M80.8824 60C90.9893 60 99.4725 67.0205 101.812 76.4961C102.346 76.456 102.886 76.4356 103.431 76.4356C115.343 76.4356 125 86.1879 125 98.2178C125 110.248 115.343 120 103.431 120C99.2987 120 95.4375 118.826 92.1569 116.791C88.8762 118.826 85.015 120 80.8823 120C74.5193 120 68.7998 117.217 64.8519 112.791C62.3016 113.863 59.5035 114.455 56.5686 114.455C44.6566 114.455 35 104.703 35 92.6733C35 80.6433 44.6566 70.8911 56.5686 70.8911C58.3867 70.8911 60.1522 71.1182 61.8389 71.546C65.4672 64.6758 72.6341 60 80.8824 60Z" fill="#FFFFFF" fill-opacity="1.000000" fill-rule="evenodd"/>
		</g>
		<mask id="mask0_20" mask-type="alpha" maskUnits="userSpaceOnUse" x="35.000000" y="60.000000" width="90.000000" height="60.000000">
			<path id="path" d="M80.8824 60C90.9893 60 99.4725 67.0205 101.812 76.4961C102.346 76.456 102.886 76.4356 103.431 76.4356C115.343 76.4356 125 86.1879 125 98.2178C125 110.248 115.343 120 103.431 120C99.2987 120 95.4375 118.826 92.1569 116.791C88.8762 118.826 85.015 120 80.8823 120C74.5193 120 68.7998 117.217 64.8519 112.791C62.3016 113.863 59.5035 114.455 56.5686 114.455C44.6566 114.455 35 104.703 35 92.6733C35 80.6433 44.6566 70.8911 56.5686 70.8911C58.3867 70.8911 60.1522 71.1182 61.8389 71.546C65.4672 64.6758 72.6341 60 80.8824 60Z" fill="#FFFFFF" fill-opacity="1.000000" fill-rule="evenodd"/>
		</mask>
		<g mask="url(#mask0_20)">
			<path id="path" d="M101.812 76.4961L92.1029 78.8926L94.1289 87.1003L102.559 86.4682L101.812 76.4961ZM92.1569 116.791L97.429 108.293L92.1569 105.022L86.8847 108.293L92.1569 116.791ZM64.8519 112.791L72.3147 106.135L67.5605 100.805L60.9764 103.573L64.8519 112.791ZM61.8389 71.546L59.3805 81.2391L67.0071 83.1733L70.6814 76.216L61.8389 71.546ZM111.52 74.0997C108.12 60.3249 95.7585 50 80.8824 50L80.8824 70C86.2201 70 90.8251 73.7161 92.1029 78.8926L111.52 74.0997ZM103.431 66.4356C102.637 66.4356 101.847 66.4654 101.064 66.5241L102.559 86.4682C102.845 86.4467 103.136 86.4356 103.431 86.4356L103.431 66.4356ZM135 98.2178C135 80.7581 120.959 66.4356 103.431 66.4356L103.431 86.4356C109.728 86.4356 115 91.6176 115 98.2178L135 98.2178ZM103.431 130C120.959 130 135 115.678 135 98.2178L115 98.2178C115 104.818 109.728 110 103.431 110L103.431 130ZM86.8847 125.288C91.6985 128.275 97.3777 130 103.431 130L103.431 110C101.22 110 99.1766 109.378 97.429 108.293L86.8847 125.288ZM80.8823 130C86.936 130 92.6152 128.275 97.429 125.288L86.8847 108.293C85.1371 109.378 83.0939 110 80.8823 110L80.8823 130ZM57.3892 119.448C63.142 125.897 71.5329 130 80.8823 130L80.8823 110C77.5057 110 74.4576 108.537 72.3147 106.135L57.3892 119.448ZM60.9764 103.573C59.6294 104.139 58.1472 104.455 56.5686 104.455L56.5686 124.455C60.8599 124.455 64.9737 123.588 68.7275 122.01L60.9764 103.573ZM56.5686 104.455C50.2721 104.455 45 99.2735 45 92.6733L25 92.6733C25 110.133 39.0411 124.455 56.5686 124.455L56.5686 104.455ZM45 92.6733C45 86.073 50.2721 80.8911 56.5686 80.8911L56.5686 60.8911C39.0411 60.8911 25 75.2136 25 92.6733L45 92.6733ZM56.5686 80.8911C57.5505 80.8911 58.4905 81.0134 59.3805 81.2391L64.2972 61.8529C61.8139 61.2231 59.2228 60.8911 56.5686 60.8911L56.5686 80.8911ZM80.8824 50C68.7451 50 58.2698 56.8907 52.9963 66.876L70.6814 76.216C72.6646 72.461 76.523 70 80.8824 70L80.8824 50Z" fill="#FFFFFF" fill-opacity="1.000000" fill-rule="nonzero"/>
		</g>
	</g>
</svg>
