<svg width="500.000000" height="450.000000" viewBox="0 0 500 450" fill="none" xmlns="http://www.w3.org/2000/svg" xmlns:xlink="http://www.w3.org/1999/xlink">
	<desc>
			Created with Pixso.
	</desc>
	<defs/>
	<path id="Слияние" d="M207.132 74.2494L250 0L292.868 74.2495C297.396 81.7709 300 90.5813 300 100C300 127.614 277.614 150 250 150C222.386 150 200 127.614 200 100C200 90.5813 202.604 81.7708 207.132 74.2494Z" clip-rule="evenodd" fill="#FFFFFF" fill-opacity="1.000000" fill-rule="evenodd"/>
	<path id="Слияние" d="M7.13208 374.249L50 300L92.868 374.25C97.3957 381.771 100 390.581 100 400C100 427.614 77.6142 450 50 450C22.3858 450 0 427.614 0 400C0 390.581 2.60431 381.771 7.13208 374.249Z" clip-rule="evenodd" fill="#FFFFFF" fill-opacity="1.000000" fill-rule="evenodd"/>
	<path id="Слияние" d="M307.132 224.249L350 150L392.868 224.25C397.396 231.771 400 240.581 400 250C400 277.614 377.614 300 350 300C322.386 300 300 277.614 300 250C300 240.581 302.604 231.771 307.132 224.249Z" clip-rule="evenodd" fill="#FFFFFF" fill-opacity="1.000000" fill-rule="evenodd"/>
	<path id="Слияние" d="M207.132 374.249L250 300L292.868 374.25C297.396 381.771 300 390.581 300 400C300 427.614 277.614 450 250 450C222.386 450 200 427.614 200 400C200 390.581 202.604 381.771 207.132 374.249Z" clip-rule="evenodd" fill="#FFFFFF" fill-opacity="1.000000" fill-rule="evenodd"/>
	<path id="Слияние" d="M107.132 224.249L150 150L192.868 224.25C197.396 231.771 200 240.581 200 250C200 277.614 177.614 300 150 300C122.386 300 100 277.614 100 250C100 240.581 102.604 231.771 107.132 224.249Z" clip-rule="evenodd" fill="#FFFFFF" fill-opacity="1.000000" fill-rule="evenodd"/>
	<path id="Слияние" d="M407.132 374.249L450 300L492.868 374.25C497.396 381.771 500 390.581 500 400C500 427.614 477.614 450 450 450C422.386 450 400 427.614 400 400C400 390.581 402.604 381.771 407.132 374.249Z" clip-rule="evenodd" fill="#FFFFFF" fill-opacity="1.000000" fill-rule="evenodd"/>
</svg>
