<svg width="765.024414" height="770.024658" viewBox="0 0 765.024 770.025" fill="none" xmlns="http://www.w3.org/2000/svg" xmlns:xlink="http://www.w3.org/1999/xlink">
	<desc>
			Created with Pixso.
	</desc>
	<defs/>
	<rect id="rect" x="375.999695" y="0.000015" rx="8.000000" width="16.000000" height="200.000000" fill="#FFFFFF" fill-opacity="1.000000"/>
	<rect id="rect" x="312.999725" y="11.313707" rx="8.000000" width="16.000000" height="100.000000" transform="rotate(-45 312.999725 11.313707)" fill="#FFFFFF" fill-opacity="1.000000"/>
	<rect id="rect" x="282.999725" y="40.313736" rx="8.000000" width="16.000000" height="100.000000" transform="rotate(-45 282.999725 40.313736)" fill="#FFFFFF" fill-opacity="1.000000"/>
	<rect id="rect" x="401.999725" y="99.313705" rx="8.000000" width="16.000000" height="99.999992" transform="rotate(-45 401.999725 99.313705)" fill="#FFFFFF" fill-opacity="1.000000"/>
	<rect id="rect" x="384.313721" y="82.024399" rx="8.000000" width="16.000000" height="100.000000" transform="rotate(-135 384.313721 82.024399)" fill="#FFFFFF" fill-opacity="1.000000"/>
	<rect id="rect" x="292.313690" y="170.024063" rx="8.000000" width="16.000000" height="99.999985" transform="rotate(-135 292.313690 170.024063)" fill="#FFFFFF" fill-opacity="1.000000"/>
	<rect id="rect" x="413.313721" y="111.024033" rx="8.000000" width="16.000000" height="100.000000" transform="rotate(-135 413.313721 111.024033)" fill="#FFFFFF" fill-opacity="1.000000"/>
	<rect id="rect" x="324.313721" y="200.024033" rx="8.000000" width="16.000000" height="99.999985" transform="rotate(-135 324.313721 200.024033)" fill="#FFFFFF" fill-opacity="1.000000"/>
	<rect id="rect" x="372.999725" y="129.314011" rx="8.000000" width="16.000000" height="100.000000" transform="rotate(-45 372.999725 129.314011)" fill="#FFFFFF" fill-opacity="1.000000"/>
	<rect id="rect" x="483.999695" y="92.000015" rx="8.000000" width="16.000000" height="200.000000" transform="rotate(90 483.999695 92.000015)" fill="#FFFFFF" fill-opacity="1.000000"/>
	<rect id="rect" x="375.999695" y="270.000000" rx="8.000000" width="16.000000" height="200.000000" fill="#FFFFFF" fill-opacity="1.000000"/>
	<rect id="rect" x="312.999725" y="281.313721" rx="8.000000" width="16.000000" height="100.000000" transform="rotate(-45 312.999725 281.313721)" fill="#FFFFFF" fill-opacity="1.000000"/>
	<rect id="rect" x="282.999725" y="310.313721" rx="8.000000" width="16.000000" height="100.000000" transform="rotate(-45 282.999725 310.313721)" fill="#FFFFFF" fill-opacity="1.000000"/>
	<rect id="rect" x="401.999725" y="369.313721" rx="8.000000" width="16.000000" height="99.999992" transform="rotate(-45 401.999725 369.313721)" fill="#FFFFFF" fill-opacity="1.000000"/>
	<rect id="rect" x="384.313721" y="352.024414" rx="8.000000" width="16.000000" height="100.000000" transform="rotate(-135 384.313721 352.024414)" fill="#FFFFFF" fill-opacity="1.000000"/>
	<rect id="rect" x="292.313690" y="440.024048" rx="8.000000" width="16.000000" height="99.999985" transform="rotate(-135 292.313690 440.024048)" fill="#FFFFFF" fill-opacity="1.000000"/>
	<rect id="rect" x="413.313721" y="381.024048" rx="8.000000" width="16.000000" height="100.000000" transform="rotate(-135 413.313721 381.024048)" fill="#FFFFFF" fill-opacity="1.000000"/>
	<rect id="rect" x="324.313721" y="470.024048" rx="8.000000" width="16.000000" height="99.999985" transform="rotate(-135 324.313721 470.024048)" fill="#FFFFFF" fill-opacity="1.000000"/>
	<rect id="rect" x="372.999725" y="399.314026" rx="8.000000" width="16.000000" height="100.000000" transform="rotate(-45 372.999725 399.314026)" fill="#FFFFFF" fill-opacity="1.000000"/>
	<rect id="rect" x="483.999695" y="362.000000" rx="8.000000" width="16.000000" height="200.000000" transform="rotate(90 483.999695 362.000000)" fill="#FFFFFF" fill-opacity="1.000000"/>
	<rect id="rect" x="375.999695" y="570.000000" rx="8.000000" width="16.000000" height="200.000000" fill="#FFFFFF" fill-opacity="1.000000"/>
	<rect id="rect" x="312.999725" y="581.313721" rx="8.000000" width="16.000000" height="100.000000" transform="rotate(-45 312.999725 581.313721)" fill="#FFFFFF" fill-opacity="1.000000"/>
	<rect id="rect" x="282.999725" y="610.313721" rx="8.000000" width="16.000000" height="100.000000" transform="rotate(-45 282.999725 610.313721)" fill="#FFFFFF" fill-opacity="1.000000"/>
	<rect id="rect" x="401.999725" y="669.313721" rx="8.000000" width="16.000000" height="99.999992" transform="rotate(-45 401.999725 669.313721)" fill="#FFFFFF" fill-opacity="1.000000"/>
	<rect id="rect" x="384.313721" y="652.024414" rx="8.000000" width="16.000000" height="100.000000" transform="rotate(-135 384.313721 652.024414)" fill="#FFFFFF" fill-opacity="1.000000"/>
	<rect id="rect" x="292.313690" y="740.024048" rx="8.000000" width="16.000000" height="99.999985" transform="rotate(-135 292.313690 740.024048)" fill="#FFFFFF" fill-opacity="1.000000"/>
	<rect id="rect" x="413.313721" y="681.024048" rx="8.000000" width="16.000000" height="100.000000" transform="rotate(-135 413.313721 681.024048)" fill="#FFFFFF" fill-opacity="1.000000"/>
	<rect id="rect" x="324.313721" y="770.024048" rx="8.000000" width="16.000000" height="99.999985" transform="rotate(-135 324.313721 770.024048)" fill="#FFFFFF" fill-opacity="1.000000"/>
	<rect id="rect" x="372.999725" y="699.314026" rx="8.000000" width="16.000000" height="100.000000" transform="rotate(-45 372.999725 699.314026)" fill="#FFFFFF" fill-opacity="1.000000"/>
	<rect id="rect" x="483.999695" y="662.000000" rx="8.000000" width="16.000000" height="200.000000" transform="rotate(90 483.999695 662.000000)" fill="#FFFFFF" fill-opacity="1.000000"/>
	<rect id="rect" x="94.999710" y="270.000000" rx="8.000000" width="16.000000" height="200.000000" fill="#FFFFFF" fill-opacity="1.000000"/>
	<rect id="rect" x="31.999725" y="281.313721" rx="8.000000" width="16.000000" height="100.000000" transform="rotate(-45 31.999725 281.313721)" fill="#FFFFFF" fill-opacity="1.000000"/>
	<rect id="rect" x="1.999725" y="310.313721" rx="8.000000" width="16.000000" height="100.000000" transform="rotate(-45 1.999725 310.313721)" fill="#FFFFFF" fill-opacity="1.000000"/>
	<rect id="rect" x="120.999725" y="369.313721" rx="8.000000" width="16.000000" height="99.999992" transform="rotate(-45 120.999725 369.313721)" fill="#FFFFFF" fill-opacity="1.000000"/>
	<rect id="rect" x="103.313736" y="352.024414" rx="8.000000" width="16.000000" height="100.000000" transform="rotate(-135 103.313736 352.024414)" fill="#FFFFFF" fill-opacity="1.000000"/>
	<rect id="rect" x="11.313683" y="440.024048" rx="8.000000" width="16.000000" height="99.999985" transform="rotate(-135 11.313683 440.024048)" fill="#FFFFFF" fill-opacity="1.000000"/>
	<rect id="rect" x="132.313736" y="381.024048" rx="8.000000" width="16.000000" height="100.000000" transform="rotate(-135 132.313736 381.024048)" fill="#FFFFFF" fill-opacity="1.000000"/>
	<rect id="rect" x="43.313713" y="470.024048" rx="8.000000" width="16.000000" height="99.999985" transform="rotate(-135 43.313713 470.024048)" fill="#FFFFFF" fill-opacity="1.000000"/>
	<rect id="rect" x="91.999725" y="399.314026" rx="8.000000" width="16.000000" height="100.000000" transform="rotate(-45 91.999725 399.314026)" fill="#FFFFFF" fill-opacity="1.000000"/>
	<rect id="rect" x="202.999710" y="362.000000" rx="8.000000" width="16.000000" height="200.000000" transform="rotate(90 202.999710 362.000000)" fill="#FFFFFF" fill-opacity="1.000000"/>
	<rect id="rect" x="656.999695" y="270.000000" rx="8.000000" width="16.000000" height="200.000000" fill="#FFFFFF" fill-opacity="1.000000"/>
	<rect id="rect" x="593.999756" y="281.313721" rx="8.000000" width="16.000000" height="100.000000" transform="rotate(-45 593.999756 281.313721)" fill="#FFFFFF" fill-opacity="1.000000"/>
	<rect id="rect" x="563.999756" y="310.313721" rx="8.000000" width="16.000000" height="100.000000" transform="rotate(-45 563.999756 310.313721)" fill="#FFFFFF" fill-opacity="1.000000"/>
	<rect id="rect" x="682.999756" y="369.313721" rx="8.000000" width="16.000000" height="99.999992" transform="rotate(-45 682.999756 369.313721)" fill="#FFFFFF" fill-opacity="1.000000"/>
	<rect id="rect" x="665.313721" y="352.024414" rx="8.000000" width="16.000000" height="100.000000" transform="rotate(-135 665.313721 352.024414)" fill="#FFFFFF" fill-opacity="1.000000"/>
	<rect id="rect" x="573.313660" y="440.024048" rx="8.000000" width="16.000000" height="99.999985" transform="rotate(-135 573.313660 440.024048)" fill="#FFFFFF" fill-opacity="1.000000"/>
	<rect id="rect" x="694.313721" y="381.024048" rx="8.000000" width="16.000000" height="100.000000" transform="rotate(-135 694.313721 381.024048)" fill="#FFFFFF" fill-opacity="1.000000"/>
	<rect id="rect" x="605.313721" y="470.024048" rx="8.000000" width="16.000000" height="99.999985" transform="rotate(-135 605.313721 470.024048)" fill="#FFFFFF" fill-opacity="1.000000"/>
	<rect id="rect" x="653.999756" y="399.314026" rx="8.000000" width="16.000000" height="100.000000" transform="rotate(-45 653.999756 399.314026)" fill="#FFFFFF" fill-opacity="1.000000"/>
	<rect id="rect" x="764.999695" y="362.000000" rx="8.000000" width="16.000000" height="200.000000" transform="rotate(90 764.999695 362.000000)" fill="#FFFFFF" fill-opacity="1.000000"/>
</svg>
