<svg width="240.000000" height="240.000000" viewBox="0 0 240 240" fill="none" xmlns="http://www.w3.org/2000/svg" xmlns:xlink="http://www.w3.org/1999/xlink">
	<desc>
			Created with Pixso.
	</desc>
	<defs>
		<clipPath id="clip0_3">
			<rect id="svg" width="240.000000" height="240.000000" fill="white" fill-opacity="0"/>
		</clipPath>
	</defs>
	<g clip-path="url(#clip0_3)">
		<circle id="circle" cx="120.000000" cy="120.000000" r="49.500000" fill="#FFFFFF" fill-opacity="1.000000"/>
		<circle id="circle" cx="120.000000" cy="120.000000" r="49.500000" stroke="#FFFFFF" stroke-opacity="1.000000" stroke-width="1.000000"/>
		<rect id="rect" x="110.000000" rx="10.000000" width="20.000000" height="50.000000" fill="#FFFFFF" fill-opacity="1.000000"/>
		<rect id="rect" x="110.000000" y="190.000000" rx="10.000000" width="20.000000" height="50.000000" fill="#FFFFFF" fill-opacity="1.000000"/>
		<rect id="rect" x="240.000000" y="110.000000" rx="10.000000" width="20.000000" height="50.000000" transform="rotate(90 240.000000 110.000000)" fill="#FFFFFF" fill-opacity="1.000000"/>
		<rect id="rect" x="50.000000" y="110.000000" rx="10.000000" width="20.000000" height="50.000000" transform="rotate(90 50.000000 110.000000)" fill="#FFFFFF" fill-opacity="1.000000"/>
		<rect id="rect" x="21.000004" y="35.142105" rx="10.000000" width="20.000000" height="50.000004" transform="rotate(-45 21.000004 35.142105)" fill="#FFFFFF" fill-opacity="1.000000"/>
		<rect id="rect" x="35.142105" y="219.496979" rx="10.000000" width="20.000000" height="50.000015" transform="rotate(-135 35.142105 219.496979)" fill="#FFFFFF" fill-opacity="1.000000"/>
		<rect id="rect" x="179.141998" y="70.497498" rx="10.000000" width="20.000000" height="50.000000" transform="rotate(-135 179.141998 70.497498)" fill="#FFFFFF" fill-opacity="1.000000"/>
		<rect id="rect" x="165.000000" y="179.141998" rx="10.000000" width="20.000000" height="50.000000" transform="rotate(-45 165.000000 179.141998)" fill="#FFFFFF" fill-opacity="1.000000"/>
	</g>
</svg>
