<svg width="790.000000" height="679.500000" viewBox="0 0 790 679.5" fill="none" xmlns="http://www.w3.org/2000/svg" xmlns:xlink="http://www.w3.org/1999/xlink">
	<desc>
			Created with Pixso.
	</desc>
	<defs>
		<clipPath id="clip2_1">
			<rect id="rain" width="160.000000" height="160.000000" transform="translate(369.500000 0.000000)" fill="white" fill-opacity="0"/>
		</clipPath>
		<clipPath id="clip2_49">
			<rect id="sunshine" width="160.000000" height="160.000000" transform="translate(370.000000 519.500000)" fill="white" fill-opacity="0"/>
		</clipPath>
		<filter id="filter_2_69_dd" x="103.333313" y="279.500000" width="103.333344" height="80.000000" filterUnits="userSpaceOnUse" color-interpolation-filters="sRGB">
			<feFlood flood-opacity="0" result="BackgroundImageFix"/>
			<feBlend mode="normal" in="SourceGraphic" in2="BackgroundImageFix" result="shape"/>
			<feColorMatrix in="SourceAlpha" type="matrix" values="0 0 0 0 0 0 0 0 0 0 0 0 0 0 0 0 0 0 127 0" result="hardAlpha"/>
			<feOffset dx="0" dy="4"/>
			<feGaussianBlur stdDeviation="2"/>
			<feComposite in2="hardAlpha" operator="arithmetic" k2="-1" k3="1"/>
			<feColorMatrix type="matrix" values="0 0 0 0 0 0 0 0 0 0 0 0 0 0 0 0 0 0 0.25 0"/>
			<feBlend mode="normal" in2="shape" result="effect_innerShadow_1"/>
		</filter>
		<filter id="filter_2_76_dd" x="166.481476" y="359.500000" width="103.333344" height="80.000000" filterUnits="userSpaceOnUse" color-interpolation-filters="sRGB">
			<feFlood flood-opacity="0" result="BackgroundImageFix"/>
			<feBlend mode="normal" in="SourceGraphic" in2="BackgroundImageFix" result="shape"/>
			<feColorMatrix in="SourceAlpha" type="matrix" values="0 0 0 0 0 0 0 0 0 0 0 0 0 0 0 0 0 0 127 0" result="hardAlpha"/>
			<feOffset dx="0" dy="4"/>
			<feGaussianBlur stdDeviation="2"/>
			<feComposite in2="hardAlpha" operator="arithmetic" k2="-1" k3="1"/>
			<feColorMatrix type="matrix" values="0 0 0 0 0 0 0 0 0 0 0 0 0 0 0 0 0 0 0.25 0"/>
			<feBlend mode="normal" in2="shape" result="effect_innerShadow_1"/>
		</filter>
		<filter id="filter_2_83_dd" x="40.185181" y="359.500000" width="103.333344" height="80.000000" filterUnits="userSpaceOnUse" color-interpolation-filters="sRGB">
			<feFlood flood-opacity="0" result="BackgroundImageFix"/>
			<feBlend mode="normal" in="SourceGraphic" in2="BackgroundImageFix" result="shape"/>
			<feColorMatrix in="SourceAlpha" type="matrix" values="0 0 0 0 0 0 0 0 0 0 0 0 0 0 0 0 0 0 127 0" result="hardAlpha"/>
			<feOffset dx="0" dy="4"/>
			<feGaussianBlur stdDeviation="2"/>
			<feComposite in2="hardAlpha" operator="arithmetic" k2="-1" k3="1"/>
			<feColorMatrix type="matrix" values="0 0 0 0 0 0 0 0 0 0 0 0 0 0 0 0 0 0 0.25 0"/>
			<feBlend mode="normal" in2="shape" result="effect_innerShadow_1"/>
		</filter>
		<clipPath id="clip2_64">
			<rect id="clouds" width="310.000000" height="160.000000" transform="translate(0.000000 279.500000)" fill="white" fill-opacity="0"/>
		</clipPath>
		<clipPath id="clip2_90">
			<rect id="snow" width="160.000000" height="160.000000" transform="translate(630.000000 279.500000)" fill="white" fill-opacity="0"/>
		</clipPath>
	</defs>
	<g clip-path="url(#clip2_1)">
		<path id="Слияние" d="M435.782 26.3998L449.5 0L463.218 26.3998C464.667 29.0741 465.5 32.2067 465.5 35.5556C465.5 45.3739 458.336 53.3333 449.5 53.3333C440.664 53.3333 433.5 45.3739 433.5 35.5556C433.5 32.2067 434.333 29.0741 435.782 26.3998Z" fill="#FFFFFF" fill-opacity="1.000000" fill-rule="evenodd"/>
		<path id="Слияние" d="M371.782 133.066L385.5 106.667L399.218 133.067C400.667 135.741 401.5 138.873 401.5 142.222C401.5 152.041 394.337 160 385.5 160C376.663 160 369.5 152.041 369.5 142.222C369.5 138.873 370.333 135.741 371.782 133.066Z" fill="#FFFFFF" fill-opacity="1.000000" fill-rule="evenodd"/>
		<path id="Слияние" d="M467.782 79.733L481.5 53.3333L495.218 79.7333C496.667 82.4075 497.5 85.5399 497.5 88.8889C497.5 98.7072 490.336 106.667 481.5 106.667C472.664 106.667 465.5 98.7072 465.5 88.8889C465.5 85.5399 466.333 82.4075 467.782 79.733Z" fill="#FFFFFF" fill-opacity="1.000000" fill-rule="evenodd"/>
		<path id="Слияние" d="M435.782 133.066L449.5 106.667L463.218 133.067C464.667 135.741 465.5 138.873 465.5 142.222C465.5 152.041 458.336 160 449.5 160C440.664 160 433.5 152.041 433.5 142.222C433.5 138.873 434.333 135.741 435.782 133.066Z" fill="#FFFFFF" fill-opacity="1.000000" fill-rule="evenodd"/>
		<path id="Слияние" d="M403.782 79.733L417.5 53.3333L431.218 79.7333C432.667 82.4075 433.5 85.5399 433.5 88.8889C433.5 98.7072 426.336 106.667 417.5 106.667C408.664 106.667 401.5 98.7072 401.5 88.8889C401.5 85.5399 402.333 82.4075 403.782 79.733Z" fill="#FFFFFF" fill-opacity="1.000000" fill-rule="evenodd"/>
		<path id="Слияние" d="M499.782 133.066L513.5 106.667L527.218 133.067C528.667 135.741 529.5 138.873 529.5 142.222C529.5 152.041 522.336 160 513.5 160C504.664 160 497.5 152.041 497.5 142.222C497.5 138.873 498.333 135.741 499.782 133.066Z" fill="#FFFFFF" fill-opacity="1.000000" fill-rule="evenodd"/>
	</g>
	<g clip-path="url(#clip2_49)">
		<mask id="mask2_52" mask-type="alpha" maskUnits="userSpaceOnUse" x="370.000000" y="519.500000" width="160.000000" height="160.000000">
			<rect id="svg" x="370.000000" y="519.500000" width="160.000000" height="160.000000" fill="#000000" fill-opacity="1.000000"/>
		</mask>
		<g mask="url(#mask2_52)">
			<circle id="circle" cx="450.000000" cy="599.500000" r="33.000000" fill="#FFFFFF" fill-opacity="1.000000"/>
			<circle id="circle" cx="450.000000" cy="599.500000" r="33.000000" fill="#000000" fill-opacity="0"/>
			<circle id="circle" cx="450.000000" cy="599.500000" r="33.000000" stroke="#FFFFFF" stroke-opacity="1.000000" stroke-width="1.000000"/>
			<rect id="rect" x="443.333344" y="519.500000" rx="6.666667" width="13.333334" height="33.333336" fill="#FFFFFF" fill-opacity="1.000000"/>
			<rect id="rect" x="443.333344" y="646.166687" rx="6.666667" width="13.333334" height="33.333336" fill="#FFFFFF" fill-opacity="1.000000"/>
			<rect id="rect" x="530.000000" y="592.833313" rx="6.666667" width="13.333334" height="33.333336" transform="rotate(90 530.000000 592.833313)" fill="#FFFFFF" fill-opacity="1.000000"/>
			<rect id="rect" x="403.333344" y="592.833313" rx="6.666667" width="13.333334" height="33.333336" transform="rotate(90 403.333344 592.833313)" fill="#FFFFFF" fill-opacity="1.000000"/>
			<rect id="rect" x="384.000000" y="542.928040" rx="6.666667" width="13.333334" height="33.333336" transform="rotate(-45 384.000000 542.928040)" fill="#FFFFFF" fill-opacity="1.000000"/>
			<rect id="rect" x="393.428070" y="665.831299" rx="6.666667" width="13.333334" height="33.333355" transform="rotate(-135 393.428070 665.831299)" fill="#FFFFFF" fill-opacity="1.000000"/>
			<rect id="rect" x="489.428009" y="566.498352" rx="6.666667" width="13.333334" height="33.333336" transform="rotate(-135 489.428009 566.498352)" fill="#FFFFFF" fill-opacity="1.000000"/>
			<rect id="rect" x="480.000000" y="638.927979" rx="6.666667" width="13.333334" height="33.333336" transform="rotate(-45 480.000000 638.927979)" fill="#FFFFFF" fill-opacity="1.000000"/>
		</g>
	</g>
	<g clip-path="url(#clip2_64)">
		<mask id="mask2_67" mask-type="alpha" maskUnits="userSpaceOnUse" x="0.000000" y="279.500000" width="310.000000" height="160.000000">
			<rect id="clouds" y="279.500000" width="310.000000" height="160.000000" fill="#000000" fill-opacity="1.000000"/>
		</mask>
		<g mask="url(#mask2_67)">
			<g filter="url(#filter_2_69_dd)">
				<path id="path" d="M156.013 279.5C167.617 279.5 177.358 288.861 180.042 301.495C180.656 301.441 181.276 301.414 181.902 301.414C195.579 301.414 206.667 314.417 206.667 330.457C206.667 346.497 195.579 359.5 181.902 359.5C177.158 359.5 172.725 357.935 168.958 355.221C165.191 357.935 160.758 359.5 156.013 359.5C148.707 359.5 142.141 355.79 137.608 349.888C134.68 351.318 131.468 352.107 128.098 352.107C114.421 352.107 103.333 339.104 103.333 323.064C103.333 307.024 114.421 294.021 128.098 294.021C130.185 294.021 132.212 294.324 134.148 294.895C138.314 285.734 146.543 279.5 156.013 279.5Z" fill="#FFFFFF" fill-opacity="1.000000" fill-rule="evenodd"/>
			</g>
			<mask id="mask2_73" mask-type="alpha" maskUnits="userSpaceOnUse" x="103.333313" y="279.500000" width="103.333344" height="80.000000">
				<path id="path" d="M156.013 279.5C167.617 279.5 177.358 288.861 180.042 301.495C180.656 301.441 181.276 301.414 181.902 301.414C195.579 301.414 206.667 314.417 206.667 330.457C206.667 346.497 195.579 359.5 181.902 359.5C177.158 359.5 172.725 357.935 168.958 355.221C165.191 357.935 160.758 359.5 156.013 359.5C148.707 359.5 142.141 355.79 137.608 349.888C134.68 351.318 131.468 352.107 128.098 352.107C114.421 352.107 103.333 339.104 103.333 323.064C103.333 307.024 114.421 294.021 128.098 294.021C130.185 294.021 132.212 294.324 134.148 294.895C138.314 285.734 146.543 279.5 156.013 279.5Z" fill="#FFFFFF" fill-opacity="1.000000" fill-rule="evenodd"/>
			</mask>
			<g mask="url(#mask2_73)">
				<path id="path" d="M180.042 301.495L168.896 304.69L171.222 315.634L180.901 314.791L180.042 301.495ZM168.958 355.221L175.011 343.891L168.958 339.53L162.905 343.891L168.958 355.221ZM137.608 349.888L146.177 341.013L140.718 333.906L133.158 337.597L137.608 349.888ZM134.148 294.895L131.326 307.819L140.082 310.398L144.3 301.121L134.148 294.895ZM191.19 298.3C187.286 279.933 173.093 266.167 156.013 266.167L156.013 292.833C162.142 292.833 167.429 297.788 168.896 304.69L191.19 298.3ZM181.902 288.081C180.991 288.081 180.084 288.121 179.185 288.199L180.901 314.791C181.229 314.762 181.564 314.747 181.902 314.747L181.902 288.081ZM218.148 330.457C218.148 307.177 202.027 288.081 181.902 288.081L181.902 314.747C189.132 314.747 195.185 321.657 195.185 330.457L218.148 330.457ZM181.902 372.833C202.027 372.833 218.148 353.737 218.148 330.457L195.185 330.457C195.185 339.257 189.132 346.167 181.902 346.167L181.902 372.833ZM162.905 366.551C168.431 370.533 174.953 372.833 181.902 372.833L181.902 346.167C179.364 346.167 177.018 345.337 175.011 343.891L162.905 366.551ZM156.013 372.833C162.964 372.833 169.484 370.533 175.011 366.551L162.905 343.891C160.898 345.337 158.552 346.167 156.013 346.167L156.013 372.833ZM129.039 358.763C135.645 367.363 145.279 372.833 156.013 372.833L156.013 346.167C152.137 346.167 148.637 344.216 146.177 341.013L129.039 358.763ZM133.158 337.597C131.611 338.352 129.91 338.774 128.098 338.774L128.098 365.441C133.024 365.441 137.748 364.284 142.058 362.18L133.158 337.597ZM128.098 338.774C120.868 338.774 114.815 331.865 114.815 323.064L91.8519 323.064C91.8519 346.344 107.973 365.441 128.098 365.441L128.098 338.774ZM114.815 323.064C114.815 314.264 120.868 307.355 128.098 307.355L128.098 280.688C107.973 280.688 91.8519 299.785 91.8519 323.064L114.815 323.064ZM128.098 307.355C129.225 307.355 130.303 307.518 131.326 307.819L136.971 281.97C134.12 281.131 131.145 280.688 128.098 280.688L128.098 307.355ZM156.013 266.167C142.078 266.167 130.051 275.354 123.995 288.668L144.3 301.121C146.578 296.115 151.008 292.833 156.013 292.833L156.013 266.167Z" fill="#FFFFFF" fill-opacity="1.000000" fill-rule="nonzero"/>
			</g>
			<g filter="url(#filter_2_76_dd)">
				<path id="path" d="M219.161 359.5C230.765 359.5 240.506 368.861 243.19 381.495C243.805 381.441 244.425 381.414 245.05 381.414C258.727 381.414 269.815 394.417 269.815 410.457C269.815 426.497 258.727 439.5 245.05 439.5C240.306 439.5 235.873 437.935 232.106 435.221C228.339 437.935 223.906 439.5 219.161 439.5C211.855 439.5 205.289 435.789 200.756 429.888C197.828 431.317 194.616 432.107 191.246 432.107C177.569 432.107 166.481 419.104 166.481 403.064C166.481 387.024 177.569 374.021 191.246 374.021C193.333 374.021 195.36 374.324 197.297 374.895C201.462 365.734 209.691 359.5 219.161 359.5Z" fill="#FFFFFF" fill-opacity="1.000000" fill-rule="evenodd"/>
			</g>
			<mask id="mask2_80" mask-type="alpha" maskUnits="userSpaceOnUse" x="166.481476" y="359.500000" width="103.333344" height="80.000000">
				<path id="path" d="M219.161 359.5C230.765 359.5 240.506 368.861 243.19 381.495C243.805 381.441 244.425 381.414 245.05 381.414C258.727 381.414 269.815 394.417 269.815 410.457C269.815 426.497 258.727 439.5 245.05 439.5C240.306 439.5 235.873 437.935 232.106 435.221C228.339 437.935 223.906 439.5 219.161 439.5C211.855 439.5 205.289 435.789 200.756 429.888C197.828 431.317 194.616 432.107 191.246 432.107C177.569 432.107 166.481 419.104 166.481 403.064C166.481 387.024 177.569 374.021 191.246 374.021C193.333 374.021 195.36 374.324 197.297 374.895C201.462 365.734 209.691 359.5 219.161 359.5Z" fill="#FFFFFF" fill-opacity="1.000000" fill-rule="evenodd"/>
			</mask>
			<g mask="url(#mask2_80)">
				<path id="path" d="M243.19 381.495L232.044 384.69L234.37 395.634L244.049 394.791L243.19 381.495ZM232.106 435.221L238.159 423.891L232.106 419.529L226.053 423.891L232.106 435.221ZM200.756 429.888L209.325 421.013L203.866 413.907L196.306 417.597L200.756 429.888ZM197.297 374.895L194.474 387.819L203.23 390.398L207.449 381.121L197.297 374.895ZM254.338 378.3C250.434 359.933 236.241 346.167 219.161 346.167L219.161 372.833C225.29 372.833 230.577 377.788 232.044 384.69L254.338 378.3ZM245.05 368.081C244.139 368.081 243.232 368.121 242.333 368.199L244.049 394.791C244.378 394.762 244.712 394.747 245.05 394.747L245.05 368.081ZM281.296 410.457C281.296 387.177 265.175 368.081 245.05 368.081L245.05 394.747C252.28 394.747 258.333 401.657 258.333 410.457L281.296 410.457ZM245.05 452.833C265.175 452.833 281.296 433.737 281.296 410.457L258.333 410.457C258.333 419.257 252.28 426.167 245.05 426.167L245.05 452.833ZM226.053 446.551C231.579 450.533 238.101 452.833 245.05 452.833L245.05 426.167C242.512 426.167 240.166 425.337 238.159 423.891L226.053 446.551ZM219.161 452.833C226.112 452.833 232.632 450.533 238.159 446.551L226.053 423.891C224.046 425.337 221.701 426.167 219.161 426.167L219.161 452.833ZM192.187 438.764C198.793 447.363 208.427 452.833 219.161 452.833L219.161 426.167C215.285 426.167 211.785 424.216 209.325 421.013L192.187 438.764ZM196.306 417.597C194.759 418.352 193.058 418.773 191.246 418.773L191.246 445.44C196.173 445.44 200.896 444.284 205.205 442.18L196.306 417.597ZM191.246 418.773C184.016 418.773 177.963 411.865 177.963 403.064L155 403.064C155 426.344 171.121 445.44 191.246 445.44L191.246 418.773ZM177.963 403.064C177.963 394.264 184.016 387.355 191.246 387.355L191.246 360.688C171.121 360.688 155 379.785 155 403.064L177.963 403.064ZM191.246 387.355C192.373 387.355 193.451 387.518 194.474 387.819L200.119 361.971C197.268 361.131 194.293 360.688 191.246 360.688L191.246 387.355ZM219.161 346.167C205.226 346.167 193.199 355.354 187.144 368.668L207.449 381.121C209.726 376.115 214.156 372.833 219.161 372.833L219.161 346.167Z" fill="#FFFFFF" fill-opacity="1.000000" fill-rule="nonzero"/>
			</g>
			<g filter="url(#filter_2_83_dd)">
				<path id="path" d="M92.865 359.5C104.469 359.5 114.209 368.861 116.895 381.495C117.508 381.441 118.128 381.414 118.754 381.414C132.431 381.414 143.519 394.417 143.519 410.457C143.519 426.497 132.431 439.5 118.754 439.5C114.01 439.5 109.576 437.935 105.81 435.221C102.043 437.935 97.6098 439.5 92.8649 439.5C85.5592 439.5 78.9924 435.789 74.4596 429.888C71.5315 431.317 68.3188 432.107 64.9491 432.107C51.2724 432.107 40.1852 419.104 40.1852 403.064C40.1852 387.024 51.2724 374.021 64.9491 374.021C67.0366 374.021 69.0636 374.324 71.0002 374.895C75.166 365.734 83.3947 359.5 92.865 359.5Z" fill="#FFFFFF" fill-opacity="1.000000" fill-rule="evenodd"/>
			</g>
			<mask id="mask2_87" mask-type="alpha" maskUnits="userSpaceOnUse" x="40.185181" y="359.500000" width="103.333344" height="80.000000">
				<path id="path" d="M92.865 359.5C104.469 359.5 114.209 368.861 116.895 381.495C117.508 381.441 118.128 381.414 118.754 381.414C132.431 381.414 143.519 394.417 143.519 410.457C143.519 426.497 132.431 439.5 118.754 439.5C114.01 439.5 109.576 437.935 105.81 435.221C102.043 437.935 97.6098 439.5 92.8649 439.5C85.5592 439.5 78.9924 435.789 74.4596 429.888C71.5315 431.317 68.3188 432.107 64.9491 432.107C51.2724 432.107 40.1852 419.104 40.1852 403.064C40.1852 387.024 51.2724 374.021 64.9491 374.021C67.0366 374.021 69.0636 374.324 71.0002 374.895C75.166 365.734 83.3947 359.5 92.865 359.5Z" fill="#FFFFFF" fill-opacity="1.000000" fill-rule="evenodd"/>
			</mask>
			<g mask="url(#mask2_87)">
				<path id="path" d="M116.895 381.495L105.748 384.69L108.074 395.634L117.753 394.791L116.895 381.495ZM105.81 435.221L111.863 423.891L105.81 419.529L99.7565 423.891L105.81 435.221ZM74.4596 429.888L83.028 421.013L77.5695 413.907L70.0099 417.597L74.4596 429.888ZM71.0002 374.895L68.1776 387.819L76.9341 390.398L81.1527 381.121L71.0002 374.895ZM128.041 378.3C124.138 359.933 109.945 346.167 92.865 346.167L92.865 372.833C98.9935 372.833 104.281 377.788 105.748 384.69L128.041 378.3ZM118.754 368.081C117.842 368.081 116.935 368.121 116.036 368.199L117.753 394.791C118.081 394.762 118.415 394.747 118.754 394.747L118.754 368.081ZM155 410.457C155 387.177 138.879 368.081 118.754 368.081L118.754 394.747C125.984 394.747 132.037 401.657 132.037 410.457L155 410.457ZM118.754 452.833C138.879 452.833 155 433.737 155 410.457L132.037 410.457C132.037 419.257 125.984 426.167 118.754 426.167L118.754 452.833ZM99.7565 446.551C105.283 450.533 111.804 452.833 118.754 452.833L118.754 426.167C116.216 426.167 113.869 425.337 111.863 423.891L99.7565 446.551ZM92.8649 452.833C99.8154 452.833 106.336 450.533 111.863 446.551L99.7565 423.891C97.75 425.337 95.4041 426.167 92.8649 426.167L92.8649 452.833ZM65.8913 438.764C72.4964 447.363 82.1304 452.833 92.8649 452.833L92.8649 426.167C88.988 426.167 85.4884 424.216 83.028 421.013L65.8913 438.764ZM70.0099 417.597C68.4634 418.352 66.7616 418.773 64.9491 418.773L64.9491 445.44C69.8762 445.44 74.5994 444.284 78.9094 442.18L70.0099 417.597ZM64.9491 418.773C57.7198 418.773 51.6667 411.865 51.6667 403.064L28.7037 403.064C28.7037 426.344 44.825 445.44 64.9491 445.44L64.9491 418.773ZM51.6667 403.064C51.6667 394.264 57.7198 387.355 64.9491 387.355L64.9491 360.688C44.825 360.688 28.7037 379.785 28.7037 403.064L51.6667 403.064ZM64.9491 387.355C66.0765 387.355 67.1558 387.518 68.1776 387.819L73.8227 361.971C70.9715 361.131 67.9966 360.688 64.9491 360.688L64.9491 387.355ZM92.865 346.167C78.9296 346.167 66.9024 355.354 60.8476 368.668L81.1527 381.121C83.4297 376.115 87.8597 372.833 92.865 372.833L92.865 346.167Z" fill="#FFFFFF" fill-opacity="1.000000" fill-rule="nonzero"/>
			</g>
		</g>
	</g>
	<g clip-path="url(#clip2_90)">
		<rect id="rect" x="708.638000" y="279.500000" rx="1.673148" width="3.346297" height="41.557091" fill="#FFFFFF" fill-opacity="1.000000"/>
		<rect id="rect" x="695.461975" y="281.850830" rx="1.667725" width="3.335449" height="20.846561" transform="rotate(-44.8134 695.461975 281.850830)" fill="#FFFFFF" fill-opacity="1.000000"/>
		<rect id="rect" x="689.187622" y="287.876617" rx="1.667725" width="3.335449" height="20.846561" transform="rotate(-44.8134 689.187622 287.876617)" fill="#FFFFFF" fill-opacity="1.000000"/>
		<rect id="rect" x="714.075745" y="300.135956" rx="1.667725" width="3.335449" height="20.846556" transform="rotate(-44.8134 714.075745 300.135956)" fill="#FFFFFF" fill-opacity="1.000000"/>
		<rect id="rect" x="710.376831" y="296.543488" rx="1.667725" width="3.335449" height="20.846561" transform="rotate(-135.187 710.376831 296.543488)" fill="#FFFFFF" fill-opacity="1.000000"/>
		<rect id="rect" x="691.135620" y="314.828522" rx="1.667725" width="3.335449" height="20.846556" transform="rotate(-135.187 691.135620 314.828522)" fill="#FFFFFF" fill-opacity="1.000000"/>
		<rect id="rect" x="716.441956" y="302.569183" rx="1.667725" width="3.335449" height="20.846561" transform="rotate(-135.187 716.441956 302.569183)" fill="#FFFFFF" fill-opacity="1.000000"/>
		<rect id="rect" x="697.828247" y="321.062103" rx="1.667725" width="3.335449" height="20.846556" transform="rotate(-135.187 697.828247 321.062103)" fill="#FFFFFF" fill-opacity="1.000000"/>
		<rect id="rect" x="708.010559" y="306.369568" rx="1.667725" width="3.335449" height="20.846561" transform="rotate(-44.8134 708.010559 306.369568)" fill="#FFFFFF" fill-opacity="1.000000"/>
		<rect id="rect" x="731.225464" y="298.616272" rx="1.662284" width="3.324567" height="41.828709" transform="rotate(90 731.225464 298.616272)" fill="#FFFFFF" fill-opacity="1.000000"/>
		<rect id="rect" x="708.638000" y="335.602081" rx="1.673148" width="3.346297" height="41.557091" fill="#FFFFFF" fill-opacity="1.000000"/>
		<rect id="rect" x="695.461975" y="337.952881" rx="1.667725" width="3.335449" height="20.846561" transform="rotate(-44.8134 695.461975 337.952881)" fill="#FFFFFF" fill-opacity="1.000000"/>
		<rect id="rect" x="689.187622" y="343.978668" rx="1.667725" width="3.335449" height="20.846561" transform="rotate(-44.8134 689.187622 343.978668)" fill="#FFFFFF" fill-opacity="1.000000"/>
		<rect id="rect" x="714.075745" y="356.238007" rx="1.667725" width="3.335449" height="20.846561" transform="rotate(-44.8134 714.075745 356.238007)" fill="#FFFFFF" fill-opacity="1.000000"/>
		<rect id="rect" x="710.376831" y="352.645538" rx="1.667725" width="3.335449" height="20.846561" transform="rotate(-135.187 710.376831 352.645538)" fill="#FFFFFF" fill-opacity="1.000000"/>
		<rect id="rect" x="691.135620" y="370.930603" rx="1.667725" width="3.335449" height="20.846561" transform="rotate(-135.187 691.135620 370.930603)" fill="#FFFFFF" fill-opacity="1.000000"/>
		<rect id="rect" x="716.441956" y="358.671265" rx="1.667725" width="3.335449" height="20.846561" transform="rotate(-135.187 716.441956 358.671265)" fill="#FFFFFF" fill-opacity="1.000000"/>
		<rect id="rect" x="697.828186" y="377.164185" rx="1.667725" width="3.335449" height="20.846561" transform="rotate(-135.187 697.828186 377.164185)" fill="#FFFFFF" fill-opacity="1.000000"/>
		<rect id="rect" x="708.010559" y="362.471619" rx="1.667725" width="3.335449" height="20.846561" transform="rotate(-44.8134 708.010559 362.471619)" fill="#FFFFFF" fill-opacity="1.000000"/>
		<rect id="rect" x="731.225464" y="354.718323" rx="1.662284" width="3.324567" height="41.828712" transform="rotate(90 731.225464 354.718323)" fill="#FFFFFF" fill-opacity="1.000000"/>
		<rect id="rect" x="708.638000" y="397.937683" rx="1.673148" width="3.346297" height="41.557091" fill="#FFFFFF" fill-opacity="1.000000"/>
		<rect id="rect" x="695.461914" y="400.288513" rx="1.667725" width="3.335449" height="20.846561" transform="rotate(-44.8134 695.461914 400.288513)" fill="#FFFFFF" fill-opacity="1.000000"/>
		<rect id="rect" x="689.187622" y="406.314331" rx="1.667725" width="3.335449" height="20.846561" transform="rotate(-44.8134 689.187622 406.314331)" fill="#FFFFFF" fill-opacity="1.000000"/>
		<rect id="rect" x="714.075745" y="418.573669" rx="1.667725" width="3.335449" height="20.846561" transform="rotate(-44.8134 714.075745 418.573669)" fill="#FFFFFF" fill-opacity="1.000000"/>
		<rect id="rect" x="710.376831" y="414.981201" rx="1.667725" width="3.335449" height="20.846561" transform="rotate(-135.187 710.376831 414.981201)" fill="#FFFFFF" fill-opacity="1.000000"/>
		<rect id="rect" x="691.135620" y="433.266235" rx="1.667725" width="3.335449" height="20.846561" transform="rotate(-135.187 691.135620 433.266235)" fill="#FFFFFF" fill-opacity="1.000000"/>
		<rect id="rect" x="716.441956" y="421.006897" rx="1.667725" width="3.335449" height="20.846561" transform="rotate(-135.187 716.441956 421.006897)" fill="#FFFFFF" fill-opacity="1.000000"/>
		<rect id="rect" x="697.828186" y="439.499817" rx="1.667725" width="3.335449" height="20.846561" transform="rotate(-135.187 697.828186 439.499817)" fill="#FFFFFF" fill-opacity="1.000000"/>
		<rect id="rect" x="708.010559" y="424.807312" rx="1.667725" width="3.335449" height="20.846561" transform="rotate(-44.8134 708.010559 424.807312)" fill="#FFFFFF" fill-opacity="1.000000"/>
		<rect id="rect" x="731.225525" y="417.053955" rx="1.662284" width="3.324567" height="41.828712" transform="rotate(90 731.225525 417.053955)" fill="#FFFFFF" fill-opacity="1.000000"/>
		<rect id="rect" x="649.868652" y="335.602081" rx="1.673148" width="3.346297" height="41.557091" fill="#FFFFFF" fill-opacity="1.000000"/>
		<rect id="rect" x="636.692627" y="337.952881" rx="1.667725" width="3.335449" height="20.846561" transform="rotate(-44.8134 636.692627 337.952881)" fill="#FFFFFF" fill-opacity="1.000000"/>
		<rect id="rect" x="630.418335" y="343.978668" rx="1.667725" width="3.335449" height="20.846561" transform="rotate(-44.8134 630.418335 343.978668)" fill="#FFFFFF" fill-opacity="1.000000"/>
		<rect id="rect" x="655.306396" y="356.238007" rx="1.667725" width="3.335449" height="20.846561" transform="rotate(-44.8134 655.306396 356.238007)" fill="#FFFFFF" fill-opacity="1.000000"/>
		<rect id="rect" x="651.607483" y="352.645569" rx="1.667725" width="3.335449" height="20.846561" transform="rotate(-135.187 651.607483 352.645569)" fill="#FFFFFF" fill-opacity="1.000000"/>
		<rect id="rect" x="632.366272" y="370.930603" rx="1.667725" width="3.335449" height="20.846561" transform="rotate(-135.187 632.366272 370.930603)" fill="#FFFFFF" fill-opacity="1.000000"/>
		<rect id="rect" x="657.672668" y="358.671265" rx="1.667725" width="3.335449" height="20.846561" transform="rotate(-135.187 657.672668 358.671265)" fill="#FFFFFF" fill-opacity="1.000000"/>
		<rect id="rect" x="639.058838" y="377.164185" rx="1.667725" width="3.335449" height="20.846561" transform="rotate(-135.187 639.058838 377.164185)" fill="#FFFFFF" fill-opacity="1.000000"/>
		<rect id="rect" x="649.241211" y="362.471619" rx="1.667725" width="3.335449" height="20.846561" transform="rotate(-44.8134 649.241211 362.471619)" fill="#FFFFFF" fill-opacity="1.000000"/>
		<rect id="rect" x="672.456177" y="354.718323" rx="1.662284" width="3.324567" height="41.828712" transform="rotate(90 672.456177 354.718323)" fill="#FFFFFF" fill-opacity="1.000000"/>
		<rect id="rect" x="767.407349" y="335.602081" rx="1.673148" width="3.346297" height="41.557091" fill="#FFFFFF" fill-opacity="1.000000"/>
		<rect id="rect" x="754.231323" y="337.952881" rx="1.667725" width="3.335449" height="20.846561" transform="rotate(-44.8134 754.231323 337.952881)" fill="#FFFFFF" fill-opacity="1.000000"/>
		<rect id="rect" x="747.957031" y="343.978668" rx="1.667725" width="3.335449" height="20.846561" transform="rotate(-44.8134 747.957031 343.978668)" fill="#FFFFFF" fill-opacity="1.000000"/>
		<rect id="rect" x="772.845093" y="356.238007" rx="1.667725" width="3.335449" height="20.846561" transform="rotate(-44.8134 772.845093 356.238007)" fill="#FFFFFF" fill-opacity="1.000000"/>
		<rect id="rect" x="769.146179" y="352.645569" rx="1.667725" width="3.335449" height="20.846561" transform="rotate(-135.187 769.146179 352.645569)" fill="#FFFFFF" fill-opacity="1.000000"/>
		<rect id="rect" x="749.904907" y="370.930603" rx="1.667725" width="3.335449" height="20.846561" transform="rotate(-135.187 749.904907 370.930603)" fill="#FFFFFF" fill-opacity="1.000000"/>
		<rect id="rect" x="775.211365" y="358.671265" rx="1.667725" width="3.335449" height="20.846561" transform="rotate(-135.187 775.211365 358.671265)" fill="#FFFFFF" fill-opacity="1.000000"/>
		<rect id="rect" x="756.597595" y="377.164185" rx="1.667725" width="3.335449" height="20.846561" transform="rotate(-135.187 756.597595 377.164185)" fill="#FFFFFF" fill-opacity="1.000000"/>
		<rect id="rect" x="766.779907" y="362.471619" rx="1.667725" width="3.335449" height="20.846561" transform="rotate(-44.8134 766.779907 362.471619)" fill="#FFFFFF" fill-opacity="1.000000"/>
		<rect id="rect" x="789.994873" y="354.718323" rx="1.662284" width="3.324567" height="41.828712" transform="rotate(90 789.994873 354.718323)" fill="#FFFFFF" fill-opacity="1.000000"/>
	</g>
</svg>
